<svg width="177" height="204" viewBox="0 0 177 204" fill="none" xmlns="http://www.w3.org/2000/svg">
<g clip-path="url(#clip0_234_161)">
<mask id="path-1-outside-1_234_161" maskUnits="userSpaceOnUse" x="0.496094" y="0.619141" width="177" height="203" fill="black">
<rect fill="white" x="0.496094" y="0.619141" width="177" height="203"/>
<path d="M88.9454 3.74275C89.2187 3.86342 89.2187 3.86342 89.4777 4.01008C89.5775 4.06604 89.6773 4.12199 89.7801 4.17964C89.8877 4.24151 89.9954 4.30337 90.1064 4.36711C90.2225 4.43282 90.3386 4.49852 90.4582 4.56622C91.5655 5.19569 92.6637 5.84112 93.7617 6.48665C94.9257 7.17054 96.0953 7.84409 97.2674 8.51396C98.7121 9.3399 100.152 10.174 101.587 11.0164C103.151 11.934 104.721 12.8414 106.291 13.7487C107.097 14.2151 107.904 14.682 108.71 15.1489C109.032 15.3353 109.354 15.5217 109.676 15.708C118.048 20.5538 126.419 25.3995 134.791 30.2453C134.95 30.3376 135.11 30.4298 135.274 30.5249C135.596 30.7111 135.917 30.8974 136.239 31.0837C137.048 31.5517 137.856 32.0196 138.665 32.4871C140.218 33.385 141.77 34.2854 143.317 35.1936C144.607 35.9503 145.902 36.6973 147.199 37.4394C148.644 38.2654 150.084 39.0994 151.519 39.9418C153.083 40.8594 154.653 41.7668 156.223 42.6741C157.029 43.1405 157.836 43.6075 158.642 44.0743C158.964 44.2607 159.286 44.4471 159.608 44.6335C165.404 47.9882 165.404 47.9882 165.887 48.2682C166.207 48.4533 166.527 48.6385 166.847 48.8236C167.595 49.2565 168.343 49.6896 169.091 50.1231C169.354 50.2759 169.618 50.4287 169.882 50.5815C170.211 50.7726 170.541 50.9638 170.871 51.1551C171.096 51.2856 171.096 51.2856 171.326 51.4187C171.456 51.4943 171.586 51.5698 171.72 51.6477C172.312 51.9857 172.908 52.3159 173.503 52.6476C173.503 85.22 173.503 117.792 173.503 151.352C172.277 152.041 171.051 152.73 169.788 153.439C168.456 154.215 168.456 154.215 167.126 154.996C166.189 155.546 165.249 156.092 164.308 156.636C164.147 156.728 163.987 156.821 163.822 156.917C163.496 157.105 163.171 157.293 162.845 157.481C162.038 157.948 161.232 158.415 160.426 158.881C160.104 159.068 159.782 159.254 159.46 159.441C159.3 159.533 159.141 159.625 158.977 159.72C134.345 173.978 134.345 173.978 133.862 174.257C133.54 174.444 133.218 174.63 132.897 174.816C132.088 175.284 131.28 175.752 130.471 176.22C128.918 177.118 127.366 178.018 125.819 178.926C124.441 179.735 123.057 180.531 121.67 181.324C120.314 182.099 118.964 182.884 117.617 183.674C116.053 184.592 114.483 185.499 112.913 186.407C112.106 186.873 111.3 187.34 110.493 187.807C110.171 187.993 109.849 188.18 109.528 188.366C109.368 188.458 109.209 188.551 109.045 188.646C96.0042 196.194 96.0042 196.194 95.5204 196.474C95.2012 196.659 94.882 196.843 94.5628 197.028C93.8068 197.466 93.0507 197.903 92.2943 198.34C91.936 198.547 91.5779 198.754 91.2197 198.961C90.9662 199.107 90.7126 199.254 90.459 199.4C90.2296 199.533 90.2296 199.533 89.9955 199.668C89.8605 199.746 89.7256 199.824 89.5866 199.904C89.3182 200.063 89.0561 200.232 88.7968 200.406C87.8917 200.398 87.2015 199.879 86.4562 199.418C86.1632 199.241 85.87 199.063 85.5767 198.886C85.4232 198.793 85.2697 198.7 85.1115 198.604C84.3114 198.124 83.5031 197.657 82.6946 197.191C82.5314 197.097 82.3683 197.002 82.2002 196.905C81.0735 196.255 79.9445 195.608 78.8151 194.962C77.6766 194.31 76.5449 193.646 75.4133 192.982C74.4534 192.42 73.4904 191.863 72.5243 191.311C71.2529 190.585 69.9888 189.847 68.7261 189.106C67.6396 188.469 66.5485 187.84 65.4549 187.216C64.4698 186.653 63.4903 186.08 62.5118 185.505C61.183 184.725 59.8463 183.96 58.5042 183.202C57.566 182.672 56.6351 182.13 55.7086 181.58C54.8849 181.091 54.0553 180.613 53.2239 180.138C51.3135 179.045 49.411 177.94 47.5125 176.826C46.1168 176.008 44.7179 175.196 43.3131 174.394C42.1693 173.74 41.0326 173.073 39.8962 172.407C38.8097 171.77 37.7186 171.141 36.625 170.517C35.64 169.953 34.6604 169.381 33.682 168.806C32.3531 168.025 31.0164 167.26 29.6744 166.503C28.7362 165.972 27.8053 165.431 26.8788 164.881C26.0551 164.392 25.2255 163.914 24.394 163.438C22.4837 162.346 20.5812 161.24 18.6827 160.127C17.287 159.309 15.8881 158.497 14.4832 157.695C13.492 157.128 12.5058 156.552 11.5209 155.974C9.89237 155.019 8.25604 154.078 6.61685 153.141C5.587 152.551 4.55715 151.96 3.49609 151.352C3.49609 118.779 3.49609 86.2071 3.49609 52.6476C4.72211 51.9588 5.94812 51.2699 7.21128 50.5602C8.13735 50.0166 8.13735 50.0166 9.06133 49.4693C11.0875 48.2663 13.1349 47.0984 15.1804 45.9288C16.4273 45.2156 17.6677 44.4918 18.9068 43.7651C21.1744 42.4359 23.4498 41.1204 25.7315 39.8157C26.9789 39.1022 28.22 38.3781 29.4596 37.651C31.0402 36.7244 32.6263 35.8072 34.2126 34.8904C34.7075 34.6042 35.2022 34.3177 35.6969 34.0311C37.1782 33.1727 38.6602 32.3158 40.1464 31.4661C41.3939 30.7526 42.6349 30.0285 43.8745 29.3014C45.4552 28.3748 47.0412 27.4576 48.6276 26.5408C49.1225 26.2546 49.6172 25.9681 50.1118 25.6814C51.5931 24.8231 53.0751 23.9662 54.5613 23.1165C55.8088 22.403 57.0498 21.6789 58.2894 20.9518C59.8701 20.0251 61.4561 19.108 63.0425 18.1912C63.5374 17.905 64.0321 17.6185 64.5267 17.3318C66.008 16.4735 67.49 15.6165 68.9762 14.7668C70.2237 14.0534 71.4647 13.3293 72.7044 12.6022C74.285 11.6755 75.871 10.7584 77.4574 9.84159C77.9523 9.55541 78.447 9.26888 78.9417 8.98222C81.6251 7.42736 81.6251 7.42736 82.6336 6.85114C82.8279 6.74011 82.8279 6.74011 83.0261 6.62683C83.2789 6.48257 83.5319 6.33856 83.7849 6.19482C84.4727 5.8025 85.1524 5.39988 85.8269 4.98506C85.9754 4.89446 86.124 4.80386 86.277 4.71052C86.5636 4.53508 86.8492 4.35786 87.1335 4.17862C87.2625 4.09994 87.3914 4.02126 87.5243 3.94019C87.6375 3.8696 87.7507 3.799 87.8674 3.72626C88.294 3.55734 88.5117 3.60764 88.9454 3.74275ZM87.2178 11.6637C87.0997 11.7301 86.9816 11.7965 86.8599 11.8649C85.7442 12.4949 84.6393 13.1431 83.5348 13.7925C82.3707 14.4764 81.201 15.15 80.0289 15.8199C78.5843 16.6458 77.1446 17.4799 75.7094 18.3223C74.1454 19.2399 72.5757 20.1473 71.0058 21.0546C70.1991 21.521 69.3926 21.9879 68.5862 22.4548C68.2642 22.6412 67.9422 22.8276 67.6202 23.0139C67.4608 23.1062 67.3014 23.1985 67.1372 23.2935C38.6418 39.7877 38.6418 39.7877 38.1587 40.0673C37.837 40.2536 37.5152 40.4398 37.1935 40.6261C36.385 41.0941 35.5764 41.562 34.7675 42.0295C33.2143 42.9274 31.6627 43.8278 30.1154 44.736C28.7378 45.5444 27.3538 46.341 25.9673 47.1338C24.6113 47.9093 23.2607 48.6935 21.9135 49.4842C20.3511 50.4009 18.7829 51.3075 17.2145 52.2139C15.9121 52.9668 14.6102 53.7206 13.3084 54.4745C12.8702 54.7282 12.4318 54.9815 11.9934 55.2347C11.7337 55.385 11.4741 55.5352 11.2144 55.6855C11.0958 55.7539 10.9773 55.8223 10.8551 55.8927C10.3408 56.1674 10.3408 56.1674 9.88621 56.5242C9.87113 56.7239 9.86626 56.9243 9.86553 57.1245C9.8647 57.2549 9.86388 57.3853 9.86302 57.5197C9.86286 57.6649 9.8627 57.8101 9.86253 57.9596C9.86178 58.113 9.86103 58.2664 9.86025 58.4244C9.8579 58.9453 9.85663 59.4661 9.85535 59.987C9.8539 60.3614 9.85239 60.7358 9.85083 61.1103C9.84716 62.0359 9.84421 62.9615 9.84158 63.8871C9.83937 64.6569 9.83683 65.4268 9.83407 66.1966C9.80368 74.6786 9.78706 83.1606 9.77451 91.6427C9.77269 92.8713 9.7708 94.0999 9.76888 95.3284C9.76867 95.4642 9.76846 95.6 9.76825 95.7398C9.76137 100.142 9.74784 104.544 9.73071 108.946C9.71315 113.469 9.70187 117.992 9.69868 122.516C9.69822 123.154 9.6977 123.793 9.69713 124.432C9.69703 124.557 9.69692 124.683 9.69681 124.813C9.69488 126.837 9.68635 128.862 9.67538 130.886C9.6645 132.921 9.66066 134.955 9.66404 136.99C9.66583 138.199 9.66223 139.408 9.65093 140.617C9.64309 141.52 9.64532 142.422 9.65149 143.324C9.65242 143.69 9.65005 144.055 9.64411 144.421C9.53288 146.151 9.53287 146.151 10.0714 147.732C10.5845 148.205 11.1685 148.426 11.8181 148.668C12.1421 148.849 12.4636 149.035 12.7812 149.228C13.1132 149.417 13.4455 149.607 13.7779 149.796C14.145 150.005 14.512 150.215 14.8791 150.425C14.9712 150.477 15.0634 150.53 15.1583 150.584C16.0841 151.113 17.0071 151.647 17.9296 152.181C18.0877 152.273 18.2457 152.364 18.4086 152.459C18.7273 152.644 19.046 152.828 19.3647 153.013C20.1679 153.479 20.9714 153.943 21.7748 154.408C22.0968 154.595 22.4188 154.781 22.7408 154.968C22.9001 155.06 23.0595 155.152 23.2237 155.247C23.7067 155.527 24.1897 155.806 24.6727 156.086C24.8321 156.178 24.9915 156.27 25.1557 156.365C25.4774 156.552 25.7992 156.738 26.1209 156.924C26.9294 157.392 27.7381 157.86 28.5469 158.328C30.1001 159.226 31.6517 160.126 33.199 161.034C34.4886 161.791 35.7834 162.538 37.0814 163.28C38.526 164.106 39.9657 164.94 41.4009 165.782C42.9649 166.7 44.5346 167.607 46.1045 168.515C46.9113 168.981 47.7177 169.448 48.5242 169.915C48.8461 170.101 49.1681 170.288 49.4901 170.474C78.4686 187.248 78.4686 187.248 78.9517 187.527C79.2731 187.713 79.5945 187.899 79.9158 188.085C80.8953 188.652 81.8747 189.22 82.8538 189.787C83.1779 189.975 83.5023 190.162 83.827 190.349C84.6014 190.795 85.3718 191.246 86.1352 191.71C86.2774 191.796 86.4195 191.881 86.566 191.969C86.832 192.128 87.0967 192.29 87.3596 192.455C88.0272 192.863 88.0272 192.863 88.784 192.905C89.4704 192.527 90.1495 192.142 90.8215 191.739C91.1423 191.549 91.4631 191.36 91.784 191.17C92.0355 191.021 92.0355 191.021 92.2921 190.869C93.153 190.362 94.0218 189.868 94.8897 189.372C96.352 188.537 97.8085 187.692 99.2608 186.839C100.33 186.212 101.404 185.593 102.481 184.978C103.45 184.424 104.413 183.862 105.376 183.297C106.768 182.479 108.167 181.673 109.569 180.871C110.943 180.086 112.311 179.291 113.676 178.489C114.745 177.862 115.819 177.244 116.896 176.629C117.865 176.075 118.828 175.512 119.791 174.947C121.183 174.129 122.582 173.323 123.984 172.522C125.358 171.736 126.726 170.941 128.091 170.14C129.159 169.513 130.233 168.895 131.309 168.28C132.3 167.714 133.286 167.138 134.271 166.56C135.508 165.834 136.75 165.115 137.996 164.404C138.981 163.84 139.961 163.268 140.939 162.693C142.268 161.912 143.605 161.147 144.947 160.39C145.886 159.859 146.817 159.318 147.744 158.766C148.552 158.287 149.365 157.819 150.181 157.353C151.306 156.711 152.426 156.061 153.543 155.406C155.96 153.988 158.384 152.584 160.816 151.193C161.968 150.534 163.116 149.869 164.261 149.199C164.41 149.113 164.558 149.026 164.71 148.937C164.851 148.855 164.992 148.772 165.137 148.687C165.261 148.615 165.384 148.543 165.511 148.469C165.716 148.346 165.716 148.346 165.924 148.221C166.021 148.177 166.119 148.132 166.219 148.087C166.865 147.762 166.865 147.762 167.224 147.162C167.267 146.759 167.271 146.371 167.263 145.966C167.265 145.812 167.267 145.657 167.269 145.499C167.273 144.979 167.27 144.459 167.266 143.939C167.267 143.564 167.27 143.189 167.272 142.813C167.277 141.996 167.277 141.179 167.275 140.361C167.271 139.146 167.274 137.93 167.278 136.715C167.285 134.544 167.286 132.373 167.284 130.202C167.281 128.303 167.281 126.403 167.284 124.503C167.284 124.249 167.284 123.994 167.284 123.739C167.285 123.356 167.285 122.972 167.286 122.588C167.289 119.021 167.291 115.453 167.288 111.885C167.287 111.75 167.287 111.616 167.287 111.477C167.286 110.384 167.285 109.291 167.284 108.199C167.279 103.936 167.282 99.6724 167.29 95.4092C167.3 90.6218 167.304 85.8344 167.301 81.0469C167.301 80.5367 167.3 80.0265 167.3 79.5163C167.3 79.3907 167.3 79.265 167.3 79.1356C167.299 77.237 167.302 75.3384 167.306 73.4398C167.312 71.2812 167.312 69.1227 167.305 66.9642C167.301 65.7555 167.301 64.547 167.308 63.3383C167.312 62.437 167.308 61.5359 167.302 60.6346C167.3 60.2691 167.301 59.9035 167.305 59.538C167.31 59.0426 167.306 58.548 167.299 58.0526C167.303 57.9093 167.306 57.7659 167.31 57.6182C167.298 57.2033 167.275 56.907 167.113 56.5242C166.658 56.1305 166.17 55.8812 165.627 55.6296C165.479 55.5422 165.332 55.4549 165.18 55.3648C164.769 55.1237 164.357 54.8826 163.946 54.6418C163.79 54.5509 163.635 54.46 163.475 54.3663C162.36 53.7148 161.24 53.0706 160.119 52.43C158.975 51.7757 157.838 51.1096 156.702 50.4426C155.742 49.8798 154.779 49.3228 153.813 48.771C152.715 48.1444 151.623 47.5098 150.534 46.87C149.229 46.1038 147.919 45.3472 146.605 44.5962C145.143 43.7603 143.686 42.9156 142.234 42.0627C141.165 41.4357 140.092 40.8179 139.016 40.2034C137.872 39.5492 136.736 38.8832 135.599 38.2163C134.513 37.5794 133.422 36.9511 132.328 36.3266C131.343 35.7632 130.364 35.1907 129.385 34.6158C128.056 33.8353 126.72 33.0701 125.378 32.3127C124.439 31.7823 123.508 31.2411 122.582 30.6904C121.758 30.2016 120.929 29.7236 120.097 29.2482C118.187 28.1557 116.284 27.0502 114.386 25.9371C112.99 25.1188 111.591 24.3068 110.186 23.5044C109.043 22.8501 107.906 22.1841 106.77 21.5171C105.81 20.9544 104.847 20.3974 103.88 19.8456C102.783 19.219 101.691 18.5843 100.602 17.9445C99.2094 17.127 97.8107 16.3211 96.4089 15.5198C95.1676 14.8101 93.9307 14.0932 92.6977 13.369C91.6786 12.7712 90.6591 12.1743 89.6327 11.5891C89.4868 11.5051 89.4868 11.5051 89.3379 11.4194C88.4161 10.8976 88.094 11.1674 87.2178 11.6637Z"/>
</mask>
<path d="M88.9454 3.74275C89.2187 3.86342 89.2187 3.86342 89.4777 4.01008C89.5775 4.06604 89.6773 4.12199 89.7801 4.17964C89.8877 4.24151 89.9954 4.30337 90.1064 4.36711C90.2225 4.43282 90.3386 4.49852 90.4582 4.56622C91.5655 5.19569 92.6637 5.84112 93.7617 6.48665C94.9257 7.17054 96.0953 7.84409 97.2674 8.51396C98.7121 9.3399 100.152 10.174 101.587 11.0164C103.151 11.934 104.721 12.8414 106.291 13.7487C107.097 14.2151 107.904 14.682 108.71 15.1489C109.032 15.3353 109.354 15.5217 109.676 15.708C118.048 20.5538 126.419 25.3995 134.791 30.2453C134.95 30.3376 135.11 30.4298 135.274 30.5249C135.596 30.7111 135.917 30.8974 136.239 31.0837C137.048 31.5517 137.856 32.0196 138.665 32.4871C140.218 33.385 141.77 34.2854 143.317 35.1936C144.607 35.9503 145.902 36.6973 147.199 37.4394C148.644 38.2654 150.084 39.0994 151.519 39.9418C153.083 40.8594 154.653 41.7668 156.223 42.6741C157.029 43.1405 157.836 43.6075 158.642 44.0743C158.964 44.2607 159.286 44.4471 159.608 44.6335C165.404 47.9882 165.404 47.9882 165.887 48.2682C166.207 48.4533 166.527 48.6385 166.847 48.8236C167.595 49.2565 168.343 49.6896 169.091 50.1231C169.354 50.2759 169.618 50.4287 169.882 50.5815C170.211 50.7726 170.541 50.9638 170.871 51.1551C171.096 51.2856 171.096 51.2856 171.326 51.4187C171.456 51.4943 171.586 51.5698 171.72 51.6477C172.312 51.9857 172.908 52.3159 173.503 52.6476C173.503 85.22 173.503 117.792 173.503 151.352C172.277 152.041 171.051 152.73 169.788 153.439C168.456 154.215 168.456 154.215 167.126 154.996C166.189 155.546 165.249 156.092 164.308 156.636C164.147 156.728 163.987 156.821 163.822 156.917C163.496 157.105 163.171 157.293 162.845 157.481C162.038 157.948 161.232 158.415 160.426 158.881C160.104 159.068 159.782 159.254 159.46 159.441C159.3 159.533 159.141 159.625 158.977 159.72C134.345 173.978 134.345 173.978 133.862 174.257C133.54 174.444 133.218 174.63 132.897 174.816C132.088 175.284 131.28 175.752 130.471 176.22C128.918 177.118 127.366 178.018 125.819 178.926C124.441 179.735 123.057 180.531 121.67 181.324C120.314 182.099 118.964 182.884 117.617 183.674C116.053 184.592 114.483 185.499 112.913 186.407C112.106 186.873 111.3 187.34 110.493 187.807C110.171 187.993 109.849 188.18 109.528 188.366C109.368 188.458 109.209 188.551 109.045 188.646C96.0042 196.194 96.0042 196.194 95.5204 196.474C95.2012 196.659 94.882 196.843 94.5628 197.028C93.8068 197.466 93.0507 197.903 92.2943 198.34C91.936 198.547 91.5779 198.754 91.2197 198.961C90.9662 199.107 90.7126 199.254 90.459 199.4C90.2296 199.533 90.2296 199.533 89.9955 199.668C89.8605 199.746 89.7256 199.824 89.5866 199.904C89.3182 200.063 89.0561 200.232 88.7968 200.406C87.8917 200.398 87.2015 199.879 86.4562 199.418C86.1632 199.241 85.87 199.063 85.5767 198.886C85.4232 198.793 85.2697 198.7 85.1115 198.604C84.3114 198.124 83.5031 197.657 82.6946 197.191C82.5314 197.097 82.3683 197.002 82.2002 196.905C81.0735 196.255 79.9445 195.608 78.8151 194.962C77.6766 194.31 76.5449 193.646 75.4133 192.982C74.4534 192.42 73.4904 191.863 72.5243 191.311C71.2529 190.585 69.9888 189.847 68.7261 189.106C67.6396 188.469 66.5485 187.84 65.4549 187.216C64.4698 186.653 63.4903 186.08 62.5118 185.505C61.183 184.725 59.8463 183.96 58.5042 183.202C57.566 182.672 56.6351 182.13 55.7086 181.58C54.8849 181.091 54.0553 180.613 53.2239 180.138C51.3135 179.045 49.411 177.94 47.5125 176.826C46.1168 176.008 44.7179 175.196 43.3131 174.394C42.1693 173.74 41.0326 173.073 39.8962 172.407C38.8097 171.77 37.7186 171.141 36.625 170.517C35.64 169.953 34.6604 169.381 33.682 168.806C32.3531 168.025 31.0164 167.26 29.6744 166.503C28.7362 165.972 27.8053 165.431 26.8788 164.881C26.0551 164.392 25.2255 163.914 24.394 163.438C22.4837 162.346 20.5812 161.24 18.6827 160.127C17.287 159.309 15.8881 158.497 14.4832 157.695C13.492 157.128 12.5058 156.552 11.5209 155.974C9.89237 155.019 8.25604 154.078 6.61685 153.141C5.587 152.551 4.55715 151.96 3.49609 151.352C3.49609 118.779 3.49609 86.2071 3.49609 52.6476C4.72211 51.9588 5.94812 51.2699 7.21128 50.5602C8.13735 50.0166 8.13735 50.0166 9.06133 49.4693C11.0875 48.2663 13.1349 47.0984 15.1804 45.9288C16.4273 45.2156 17.6677 44.4918 18.9068 43.7651C21.1744 42.4359 23.4498 41.1204 25.7315 39.8157C26.9789 39.1022 28.22 38.3781 29.4596 37.651C31.0402 36.7244 32.6263 35.8072 34.2126 34.8904C34.7075 34.6042 35.2022 34.3177 35.6969 34.0311C37.1782 33.1727 38.6602 32.3158 40.1464 31.4661C41.3939 30.7526 42.6349 30.0285 43.8745 29.3014C45.4552 28.3748 47.0412 27.4576 48.6276 26.5408C49.1225 26.2546 49.6172 25.9681 50.1118 25.6814C51.5931 24.8231 53.0751 23.9662 54.5613 23.1165C55.8088 22.403 57.0498 21.6789 58.2894 20.9518C59.8701 20.0251 61.4561 19.108 63.0425 18.1912C63.5374 17.905 64.0321 17.6185 64.5267 17.3318C66.008 16.4735 67.49 15.6165 68.9762 14.7668C70.2237 14.0534 71.4647 13.3293 72.7044 12.6022C74.285 11.6755 75.871 10.7584 77.4574 9.84159C77.9523 9.55541 78.447 9.26888 78.9417 8.98222C81.6251 7.42736 81.6251 7.42736 82.6336 6.85114C82.8279 6.74011 82.8279 6.74011 83.0261 6.62683C83.2789 6.48257 83.5319 6.33856 83.7849 6.19482C84.4727 5.8025 85.1524 5.39988 85.8269 4.98506C85.9754 4.89446 86.124 4.80386 86.277 4.71052C86.5636 4.53508 86.8492 4.35786 87.1335 4.17862C87.2625 4.09994 87.3914 4.02126 87.5243 3.94019C87.6375 3.8696 87.7507 3.799 87.8674 3.72626C88.294 3.55734 88.5117 3.60764 88.9454 3.74275ZM87.2178 11.6637C87.0997 11.7301 86.9816 11.7965 86.8599 11.8649C85.7442 12.4949 84.6393 13.1431 83.5348 13.7925C82.3707 14.4764 81.201 15.15 80.0289 15.8199C78.5843 16.6458 77.1446 17.4799 75.7094 18.3223C74.1454 19.2399 72.5757 20.1473 71.0058 21.0546C70.1991 21.521 69.3926 21.9879 68.5862 22.4548C68.2642 22.6412 67.9422 22.8276 67.6202 23.0139C67.4608 23.1062 67.3014 23.1985 67.1372 23.2935C38.6418 39.7877 38.6418 39.7877 38.1587 40.0673C37.837 40.2536 37.5152 40.4398 37.1935 40.6261C36.385 41.0941 35.5764 41.562 34.7675 42.0295C33.2143 42.9274 31.6627 43.8278 30.1154 44.736C28.7378 45.5444 27.3538 46.341 25.9673 47.1338C24.6113 47.9093 23.2607 48.6935 21.9135 49.4842C20.3511 50.4009 18.7829 51.3075 17.2145 52.2139C15.9121 52.9668 14.6102 53.7206 13.3084 54.4745C12.8702 54.7282 12.4318 54.9815 11.9934 55.2347C11.7337 55.385 11.4741 55.5352 11.2144 55.6855C11.0958 55.7539 10.9773 55.8223 10.8551 55.8927C10.3408 56.1674 10.3408 56.1674 9.88621 56.5242C9.87113 56.7239 9.86626 56.9243 9.86553 57.1245C9.8647 57.2549 9.86388 57.3853 9.86302 57.5197C9.86286 57.6649 9.8627 57.8101 9.86253 57.9596C9.86178 58.113 9.86103 58.2664 9.86025 58.4244C9.8579 58.9453 9.85663 59.4661 9.85535 59.987C9.8539 60.3614 9.85239 60.7358 9.85083 61.1103C9.84716 62.0359 9.84421 62.9615 9.84158 63.8871C9.83937 64.6569 9.83683 65.4268 9.83407 66.1966C9.80368 74.6786 9.78706 83.1606 9.77451 91.6427C9.77269 92.8713 9.7708 94.0999 9.76888 95.3284C9.76867 95.4642 9.76846 95.6 9.76825 95.7398C9.76137 100.142 9.74784 104.544 9.73071 108.946C9.71315 113.469 9.70187 117.992 9.69868 122.516C9.69822 123.154 9.6977 123.793 9.69713 124.432C9.69703 124.557 9.69692 124.683 9.69681 124.813C9.69488 126.837 9.68635 128.862 9.67538 130.886C9.6645 132.921 9.66066 134.955 9.66404 136.99C9.66583 138.199 9.66223 139.408 9.65093 140.617C9.64309 141.52 9.64532 142.422 9.65149 143.324C9.65242 143.69 9.65005 144.055 9.64411 144.421C9.53288 146.151 9.53287 146.151 10.0714 147.732C10.5845 148.205 11.1685 148.426 11.8181 148.668C12.1421 148.849 12.4636 149.035 12.7812 149.228C13.1132 149.417 13.4455 149.607 13.7779 149.796C14.145 150.005 14.512 150.215 14.8791 150.425C14.9712 150.477 15.0634 150.53 15.1583 150.584C16.0841 151.113 17.0071 151.647 17.9296 152.181C18.0877 152.273 18.2457 152.364 18.4086 152.459C18.7273 152.644 19.046 152.828 19.3647 153.013C20.1679 153.479 20.9714 153.943 21.7748 154.408C22.0968 154.595 22.4188 154.781 22.7408 154.968C22.9001 155.06 23.0595 155.152 23.2237 155.247C23.7067 155.527 24.1897 155.806 24.6727 156.086C24.8321 156.178 24.9915 156.27 25.1557 156.365C25.4774 156.552 25.7992 156.738 26.1209 156.924C26.9294 157.392 27.7381 157.86 28.5469 158.328C30.1001 159.226 31.6517 160.126 33.199 161.034C34.4886 161.791 35.7834 162.538 37.0814 163.28C38.526 164.106 39.9657 164.94 41.4009 165.782C42.9649 166.7 44.5346 167.607 46.1045 168.515C46.9113 168.981 47.7177 169.448 48.5242 169.915C48.8461 170.101 49.1681 170.288 49.4901 170.474C78.4686 187.248 78.4686 187.248 78.9517 187.527C79.2731 187.713 79.5945 187.899 79.9158 188.085C80.8953 188.652 81.8747 189.22 82.8538 189.787C83.1779 189.975 83.5023 190.162 83.827 190.349C84.6014 190.795 85.3718 191.246 86.1352 191.71C86.2774 191.796 86.4195 191.881 86.566 191.969C86.832 192.128 87.0967 192.29 87.3596 192.455C88.0272 192.863 88.0272 192.863 88.784 192.905C89.4704 192.527 90.1495 192.142 90.8215 191.739C91.1423 191.549 91.4631 191.36 91.784 191.17C92.0355 191.021 92.0355 191.021 92.2921 190.869C93.153 190.362 94.0218 189.868 94.8897 189.372C96.352 188.537 97.8085 187.692 99.2608 186.839C100.33 186.212 101.404 185.593 102.481 184.978C103.45 184.424 104.413 183.862 105.376 183.297C106.768 182.479 108.167 181.673 109.569 180.871C110.943 180.086 112.311 179.291 113.676 178.489C114.745 177.862 115.819 177.244 116.896 176.629C117.865 176.075 118.828 175.512 119.791 174.947C121.183 174.129 122.582 173.323 123.984 172.522C125.358 171.736 126.726 170.941 128.091 170.14C129.159 169.513 130.233 168.895 131.309 168.28C132.3 167.714 133.286 167.138 134.271 166.56C135.508 165.834 136.75 165.115 137.996 164.404C138.981 163.84 139.961 163.268 140.939 162.693C142.268 161.912 143.605 161.147 144.947 160.39C145.886 159.859 146.817 159.318 147.744 158.766C148.552 158.287 149.365 157.819 150.181 157.353C151.306 156.711 152.426 156.061 153.543 155.406C155.96 153.988 158.384 152.584 160.816 151.193C161.968 150.534 163.116 149.869 164.261 149.199C164.41 149.113 164.558 149.026 164.71 148.937C164.851 148.855 164.992 148.772 165.137 148.687C165.261 148.615 165.384 148.543 165.511 148.469C165.716 148.346 165.716 148.346 165.924 148.221C166.021 148.177 166.119 148.132 166.219 148.087C166.865 147.762 166.865 147.762 167.224 147.162C167.267 146.759 167.271 146.371 167.263 145.966C167.265 145.812 167.267 145.657 167.269 145.499C167.273 144.979 167.27 144.459 167.266 143.939C167.267 143.564 167.27 143.189 167.272 142.813C167.277 141.996 167.277 141.179 167.275 140.361C167.271 139.146 167.274 137.93 167.278 136.715C167.285 134.544 167.286 132.373 167.284 130.202C167.281 128.303 167.281 126.403 167.284 124.503C167.284 124.249 167.284 123.994 167.284 123.739C167.285 123.356 167.285 122.972 167.286 122.588C167.289 119.021 167.291 115.453 167.288 111.885C167.287 111.75 167.287 111.616 167.287 111.477C167.286 110.384 167.285 109.291 167.284 108.199C167.279 103.936 167.282 99.6724 167.29 95.4092C167.3 90.6218 167.304 85.8344 167.301 81.0469C167.301 80.5367 167.3 80.0265 167.3 79.5163C167.3 79.3907 167.3 79.265 167.3 79.1356C167.299 77.237 167.302 75.3384 167.306 73.4398C167.312 71.2812 167.312 69.1227 167.305 66.9642C167.301 65.7555 167.301 64.547 167.308 63.3383C167.312 62.437 167.308 61.5359 167.302 60.6346C167.3 60.2691 167.301 59.9035 167.305 59.538C167.31 59.0426 167.306 58.548 167.299 58.0526C167.303 57.9093 167.306 57.7659 167.31 57.6182C167.298 57.2033 167.275 56.907 167.113 56.5242C166.658 56.1305 166.17 55.8812 165.627 55.6296C165.479 55.5422 165.332 55.4549 165.18 55.3648C164.769 55.1237 164.357 54.8826 163.946 54.6418C163.79 54.5509 163.635 54.46 163.475 54.3663C162.36 53.7148 161.24 53.0706 160.119 52.43C158.975 51.7757 157.838 51.1096 156.702 50.4426C155.742 49.8798 154.779 49.3228 153.813 48.771C152.715 48.1444 151.623 47.5098 150.534 46.87C149.229 46.1038 147.919 45.3472 146.605 44.5962C145.143 43.7603 143.686 42.9156 142.234 42.0627C141.165 41.4357 140.092 40.8179 139.016 40.2034C137.872 39.5492 136.736 38.8832 135.599 38.2163C134.513 37.5794 133.422 36.9511 132.328 36.3266C131.343 35.7632 130.364 35.1907 129.385 34.6158C128.056 33.8353 126.72 33.0701 125.378 32.3127C124.439 31.7823 123.508 31.2411 122.582 30.6904C121.758 30.2016 120.929 29.7236 120.097 29.2482C118.187 28.1557 116.284 27.0502 114.386 25.9371C112.99 25.1188 111.591 24.3068 110.186 23.5044C109.043 22.8501 107.906 22.1841 106.77 21.5171C105.81 20.9544 104.847 20.3974 103.88 19.8456C102.783 19.219 101.691 18.5843 100.602 17.9445C99.2094 17.127 97.8107 16.3211 96.4089 15.5198C95.1676 14.8101 93.9307 14.0932 92.6977 13.369C91.6786 12.7712 90.6591 12.1743 89.6327 11.5891C89.4868 11.5051 89.4868 11.5051 89.3379 11.4194C88.4161 10.8976 88.094 11.1674 87.2178 11.6637Z" fill="#FDFDFD"/>
<path d="M88.9454 3.74275C89.2187 3.86342 89.2187 3.86342 89.4777 4.01008C89.5775 4.06604 89.6773 4.12199 89.7801 4.17964C89.8877 4.24151 89.9954 4.30337 90.1064 4.36711C90.2225 4.43282 90.3386 4.49852 90.4582 4.56622C91.5655 5.19569 92.6637 5.84112 93.7617 6.48665C94.9257 7.17054 96.0953 7.84409 97.2674 8.51396C98.7121 9.3399 100.152 10.174 101.587 11.0164C103.151 11.934 104.721 12.8414 106.291 13.7487C107.097 14.2151 107.904 14.682 108.71 15.1489C109.032 15.3353 109.354 15.5217 109.676 15.708C118.048 20.5538 126.419 25.3995 134.791 30.2453C134.95 30.3376 135.11 30.4298 135.274 30.5249C135.596 30.7111 135.917 30.8974 136.239 31.0837C137.048 31.5517 137.856 32.0196 138.665 32.4871C140.218 33.385 141.77 34.2854 143.317 35.1936C144.607 35.9503 145.902 36.6973 147.199 37.4394C148.644 38.2654 150.084 39.0994 151.519 39.9418C153.083 40.8594 154.653 41.7668 156.223 42.6741C157.029 43.1405 157.836 43.6075 158.642 44.0743C158.964 44.2607 159.286 44.4471 159.608 44.6335C165.404 47.9882 165.404 47.9882 165.887 48.2682C166.207 48.4533 166.527 48.6385 166.847 48.8236C167.595 49.2565 168.343 49.6896 169.091 50.1231C169.354 50.2759 169.618 50.4287 169.882 50.5815C170.211 50.7726 170.541 50.9638 170.871 51.1551C171.096 51.2856 171.096 51.2856 171.326 51.4187C171.456 51.4943 171.586 51.5698 171.72 51.6477C172.312 51.9857 172.908 52.3159 173.503 52.6476C173.503 85.22 173.503 117.792 173.503 151.352C172.277 152.041 171.051 152.73 169.788 153.439C168.456 154.215 168.456 154.215 167.126 154.996C166.189 155.546 165.249 156.092 164.308 156.636C164.147 156.728 163.987 156.821 163.822 156.917C163.496 157.105 163.171 157.293 162.845 157.481C162.038 157.948 161.232 158.415 160.426 158.881C160.104 159.068 159.782 159.254 159.46 159.441C159.3 159.533 159.141 159.625 158.977 159.72C134.345 173.978 134.345 173.978 133.862 174.257C133.54 174.444 133.218 174.63 132.897 174.816C132.088 175.284 131.28 175.752 130.471 176.22C128.918 177.118 127.366 178.018 125.819 178.926C124.441 179.735 123.057 180.531 121.67 181.324C120.314 182.099 118.964 182.884 117.617 183.674C116.053 184.592 114.483 185.499 112.913 186.407C112.106 186.873 111.3 187.34 110.493 187.807C110.171 187.993 109.849 188.18 109.528 188.366C109.368 188.458 109.209 188.551 109.045 188.646C96.0042 196.194 96.0042 196.194 95.5204 196.474C95.2012 196.659 94.882 196.843 94.5628 197.028C93.8068 197.466 93.0507 197.903 92.2943 198.34C91.936 198.547 91.5779 198.754 91.2197 198.961C90.9662 199.107 90.7126 199.254 90.459 199.4C90.2296 199.533 90.2296 199.533 89.9955 199.668C89.8605 199.746 89.7256 199.824 89.5866 199.904C89.3182 200.063 89.0561 200.232 88.7968 200.406C87.8917 200.398 87.2015 199.879 86.4562 199.418C86.1632 199.241 85.87 199.063 85.5767 198.886C85.4232 198.793 85.2697 198.7 85.1115 198.604C84.3114 198.124 83.5031 197.657 82.6946 197.191C82.5314 197.097 82.3683 197.002 82.2002 196.905C81.0735 196.255 79.9445 195.608 78.8151 194.962C77.6766 194.31 76.5449 193.646 75.4133 192.982C74.4534 192.42 73.4904 191.863 72.5243 191.311C71.2529 190.585 69.9888 189.847 68.7261 189.106C67.6396 188.469 66.5485 187.84 65.4549 187.216C64.4698 186.653 63.4903 186.08 62.5118 185.505C61.183 184.725 59.8463 183.96 58.5042 183.202C57.566 182.672 56.6351 182.13 55.7086 181.58C54.8849 181.091 54.0553 180.613 53.2239 180.138C51.3135 179.045 49.411 177.94 47.5125 176.826C46.1168 176.008 44.7179 175.196 43.3131 174.394C42.1693 173.74 41.0326 173.073 39.8962 172.407C38.8097 171.77 37.7186 171.141 36.625 170.517C35.64 169.953 34.6604 169.381 33.682 168.806C32.3531 168.025 31.0164 167.26 29.6744 166.503C28.7362 165.972 27.8053 165.431 26.8788 164.881C26.0551 164.392 25.2255 163.914 24.394 163.438C22.4837 162.346 20.5812 161.24 18.6827 160.127C17.287 159.309 15.8881 158.497 14.4832 157.695C13.492 157.128 12.5058 156.552 11.5209 155.974C9.89237 155.019 8.25604 154.078 6.61685 153.141C5.587 152.551 4.55715 151.96 3.49609 151.352C3.49609 118.779 3.49609 86.2071 3.49609 52.6476C4.72211 51.9588 5.94812 51.2699 7.21128 50.5602C8.13735 50.0166 8.13735 50.0166 9.06133 49.4693C11.0875 48.2663 13.1349 47.0984 15.1804 45.9288C16.4273 45.2156 17.6677 44.4918 18.9068 43.7651C21.1744 42.4359 23.4498 41.1204 25.7315 39.8157C26.9789 39.1022 28.22 38.3781 29.4596 37.651C31.0402 36.7244 32.6263 35.8072 34.2126 34.8904C34.7075 34.6042 35.2022 34.3177 35.6969 34.0311C37.1782 33.1727 38.6602 32.3158 40.1464 31.4661C41.3939 30.7526 42.6349 30.0285 43.8745 29.3014C45.4552 28.3748 47.0412 27.4576 48.6276 26.5408C49.1225 26.2546 49.6172 25.9681 50.1118 25.6814C51.5931 24.8231 53.0751 23.9662 54.5613 23.1165C55.8088 22.403 57.0498 21.6789 58.2894 20.9518C59.8701 20.0251 61.4561 19.108 63.0425 18.1912C63.5374 17.905 64.0321 17.6185 64.5267 17.3318C66.008 16.4735 67.49 15.6165 68.9762 14.7668C70.2237 14.0534 71.4647 13.3293 72.7044 12.6022C74.285 11.6755 75.871 10.7584 77.4574 9.84159C77.9523 9.55541 78.447 9.26888 78.9417 8.98222C81.6251 7.42736 81.6251 7.42736 82.6336 6.85114C82.8279 6.74011 82.8279 6.74011 83.0261 6.62683C83.2789 6.48257 83.5319 6.33856 83.7849 6.19482C84.4727 5.8025 85.1524 5.39988 85.8269 4.98506C85.9754 4.89446 86.124 4.80386 86.277 4.71052C86.5636 4.53508 86.8492 4.35786 87.1335 4.17862C87.2625 4.09994 87.3914 4.02126 87.5243 3.94019C87.6375 3.8696 87.7507 3.799 87.8674 3.72626C88.294 3.55734 88.5117 3.60764 88.9454 3.74275ZM87.2178 11.6637C87.0997 11.7301 86.9816 11.7965 86.8599 11.8649C85.7442 12.4949 84.6393 13.1431 83.5348 13.7925C82.3707 14.4764 81.201 15.15 80.0289 15.8199C78.5843 16.6458 77.1446 17.4799 75.7094 18.3223C74.1454 19.2399 72.5757 20.1473 71.0058 21.0546C70.1991 21.521 69.3926 21.9879 68.5862 22.4548C68.2642 22.6412 67.9422 22.8276 67.6202 23.0139C67.4608 23.1062 67.3014 23.1985 67.1372 23.2935C38.6418 39.7877 38.6418 39.7877 38.1587 40.0673C37.837 40.2536 37.5152 40.4398 37.1935 40.6261C36.385 41.0941 35.5764 41.562 34.7675 42.0295C33.2143 42.9274 31.6627 43.8278 30.1154 44.736C28.7378 45.5444 27.3538 46.341 25.9673 47.1338C24.6113 47.9093 23.2607 48.6935 21.9135 49.4842C20.3511 50.4009 18.7829 51.3075 17.2145 52.2139C15.9121 52.9668 14.6102 53.7206 13.3084 54.4745C12.8702 54.7282 12.4318 54.9815 11.9934 55.2347C11.7337 55.385 11.4741 55.5352 11.2144 55.6855C11.0958 55.7539 10.9773 55.8223 10.8551 55.8927C10.3408 56.1674 10.3408 56.1674 9.88621 56.5242C9.87113 56.7239 9.86626 56.9243 9.86553 57.1245C9.8647 57.2549 9.86388 57.3853 9.86302 57.5197C9.86286 57.6649 9.8627 57.8101 9.86253 57.9596C9.86178 58.113 9.86103 58.2664 9.86025 58.4244C9.8579 58.9453 9.85663 59.4661 9.85535 59.987C9.8539 60.3614 9.85239 60.7358 9.85083 61.1103C9.84716 62.0359 9.84421 62.9615 9.84158 63.8871C9.83937 64.6569 9.83683 65.4268 9.83407 66.1966C9.80368 74.6786 9.78706 83.1606 9.77451 91.6427C9.77269 92.8713 9.7708 94.0999 9.76888 95.3284C9.76867 95.4642 9.76846 95.6 9.76825 95.7398C9.76137 100.142 9.74784 104.544 9.73071 108.946C9.71315 113.469 9.70187 117.992 9.69868 122.516C9.69822 123.154 9.6977 123.793 9.69713 124.432C9.69703 124.557 9.69692 124.683 9.69681 124.813C9.69488 126.837 9.68635 128.862 9.67538 130.886C9.6645 132.921 9.66066 134.955 9.66404 136.99C9.66583 138.199 9.66223 139.408 9.65093 140.617C9.64309 141.52 9.64532 142.422 9.65149 143.324C9.65242 143.69 9.65005 144.055 9.64411 144.421C9.53288 146.151 9.53287 146.151 10.0714 147.732C10.5845 148.205 11.1685 148.426 11.8181 148.668C12.1421 148.849 12.4636 149.035 12.7812 149.228C13.1132 149.417 13.4455 149.607 13.7779 149.796C14.145 150.005 14.512 150.215 14.8791 150.425C14.9712 150.477 15.0634 150.53 15.1583 150.584C16.0841 151.113 17.0071 151.647 17.9296 152.181C18.0877 152.273 18.2457 152.364 18.4086 152.459C18.7273 152.644 19.046 152.828 19.3647 153.013C20.1679 153.479 20.9714 153.943 21.7748 154.408C22.0968 154.595 22.4188 154.781 22.7408 154.968C22.9001 155.06 23.0595 155.152 23.2237 155.247C23.7067 155.527 24.1897 155.806 24.6727 156.086C24.8321 156.178 24.9915 156.27 25.1557 156.365C25.4774 156.552 25.7992 156.738 26.1209 156.924C26.9294 157.392 27.7381 157.86 28.5469 158.328C30.1001 159.226 31.6517 160.126 33.199 161.034C34.4886 161.791 35.7834 162.538 37.0814 163.28C38.526 164.106 39.9657 164.94 41.4009 165.782C42.9649 166.7 44.5346 167.607 46.1045 168.515C46.9113 168.981 47.7177 169.448 48.5242 169.915C48.8461 170.101 49.1681 170.288 49.4901 170.474C78.4686 187.248 78.4686 187.248 78.9517 187.527C79.2731 187.713 79.5945 187.899 79.9158 188.085C80.8953 188.652 81.8747 189.22 82.8538 189.787C83.1779 189.975 83.5023 190.162 83.827 190.349C84.6014 190.795 85.3718 191.246 86.1352 191.71C86.2774 191.796 86.4195 191.881 86.566 191.969C86.832 192.128 87.0967 192.29 87.3596 192.455C88.0272 192.863 88.0272 192.863 88.784 192.905C89.4704 192.527 90.1495 192.142 90.8215 191.739C91.1423 191.549 91.4631 191.36 91.784 191.17C92.0355 191.021 92.0355 191.021 92.2921 190.869C93.153 190.362 94.0218 189.868 94.8897 189.372C96.352 188.537 97.8085 187.692 99.2608 186.839C100.33 186.212 101.404 185.593 102.481 184.978C103.45 184.424 104.413 183.862 105.376 183.297C106.768 182.479 108.167 181.673 109.569 180.871C110.943 180.086 112.311 179.291 113.676 178.489C114.745 177.862 115.819 177.244 116.896 176.629C117.865 176.075 118.828 175.512 119.791 174.947C121.183 174.129 122.582 173.323 123.984 172.522C125.358 171.736 126.726 170.941 128.091 170.14C129.159 169.513 130.233 168.895 131.309 168.28C132.3 167.714 133.286 167.138 134.271 166.56C135.508 165.834 136.75 165.115 137.996 164.404C138.981 163.84 139.961 163.268 140.939 162.693C142.268 161.912 143.605 161.147 144.947 160.39C145.886 159.859 146.817 159.318 147.744 158.766C148.552 158.287 149.365 157.819 150.181 157.353C151.306 156.711 152.426 156.061 153.543 155.406C155.96 153.988 158.384 152.584 160.816 151.193C161.968 150.534 163.116 149.869 164.261 149.199C164.41 149.113 164.558 149.026 164.71 148.937C164.851 148.855 164.992 148.772 165.137 148.687C165.261 148.615 165.384 148.543 165.511 148.469C165.716 148.346 165.716 148.346 165.924 148.221C166.021 148.177 166.119 148.132 166.219 148.087C166.865 147.762 166.865 147.762 167.224 147.162C167.267 146.759 167.271 146.371 167.263 145.966C167.265 145.812 167.267 145.657 167.269 145.499C167.273 144.979 167.27 144.459 167.266 143.939C167.267 143.564 167.27 143.189 167.272 142.813C167.277 141.996 167.277 141.179 167.275 140.361C167.271 139.146 167.274 137.93 167.278 136.715C167.285 134.544 167.286 132.373 167.284 130.202C167.281 128.303 167.281 126.403 167.284 124.503C167.284 124.249 167.284 123.994 167.284 123.739C167.285 123.356 167.285 122.972 167.286 122.588C167.289 119.021 167.291 115.453 167.288 111.885C167.287 111.75 167.287 111.616 167.287 111.477C167.286 110.384 167.285 109.291 167.284 108.199C167.279 103.936 167.282 99.6724 167.29 95.4092C167.3 90.6218 167.304 85.8344 167.301 81.0469C167.301 80.5367 167.3 80.0265 167.3 79.5163C167.3 79.3907 167.3 79.265 167.3 79.1356C167.299 77.237 167.302 75.3384 167.306 73.4398C167.312 71.2812 167.312 69.1227 167.305 66.9642C167.301 65.7555 167.301 64.547 167.308 63.3383C167.312 62.437 167.308 61.5359 167.302 60.6346C167.3 60.2691 167.301 59.9035 167.305 59.538C167.31 59.0426 167.306 58.548 167.299 58.0526C167.303 57.9093 167.306 57.7659 167.31 57.6182C167.298 57.2033 167.275 56.907 167.113 56.5242C166.658 56.1305 166.17 55.8812 165.627 55.6296C165.479 55.5422 165.332 55.4549 165.18 55.3648C164.769 55.1237 164.357 54.8826 163.946 54.6418C163.79 54.5509 163.635 54.46 163.475 54.3663C162.36 53.7148 161.24 53.0706 160.119 52.43C158.975 51.7757 157.838 51.1096 156.702 50.4426C155.742 49.8798 154.779 49.3228 153.813 48.771C152.715 48.1444 151.623 47.5098 150.534 46.87C149.229 46.1038 147.919 45.3472 146.605 44.5962C145.143 43.7603 143.686 42.9156 142.234 42.0627C141.165 41.4357 140.092 40.8179 139.016 40.2034C137.872 39.5492 136.736 38.8832 135.599 38.2163C134.513 37.5794 133.422 36.9511 132.328 36.3266C131.343 35.7632 130.364 35.1907 129.385 34.6158C128.056 33.8353 126.72 33.0701 125.378 32.3127C124.439 31.7823 123.508 31.2411 122.582 30.6904C121.758 30.2016 120.929 29.7236 120.097 29.2482C118.187 28.1557 116.284 27.0502 114.386 25.9371C112.99 25.1188 111.591 24.3068 110.186 23.5044C109.043 22.8501 107.906 22.1841 106.77 21.5171C105.81 20.9544 104.847 20.3974 103.88 19.8456C102.783 19.219 101.691 18.5843 100.602 17.9445C99.2094 17.127 97.8107 16.3211 96.4089 15.5198C95.1676 14.8101 93.9307 14.0932 92.6977 13.369C91.6786 12.7712 90.6591 12.1743 89.6327 11.5891C89.4868 11.5051 89.4868 11.5051 89.3379 11.4194C88.4161 10.8976 88.094 11.1674 87.2178 11.6637Z" stroke="white" stroke-width="6" mask="url(#path-1-outside-1_234_161)"/>
<path d="M118.074 60.8483C118.249 60.9962 118.424 61.1442 118.599 61.2921C119.415 61.984 120.22 62.6737 120.961 63.447C121.225 63.7119 121.504 63.9515 121.789 64.1937C122.283 64.6219 122.708 65.0766 123.13 65.5758C123.419 65.9122 123.717 66.2384 124.019 66.5637C124.804 67.4112 125.536 68.2868 126.247 69.1979C126.493 69.4981 126.741 69.7955 126.99 70.0925C126.773 70.5945 126.496 70.9236 126.112 71.3096C125.991 71.4322 125.869 71.5547 125.745 71.6809C125.611 71.814 125.478 71.9471 125.341 72.0842C125.199 72.2267 125.058 72.3693 124.916 72.5119C124.532 72.8986 124.147 73.2843 123.762 73.6698C123.359 74.0731 122.957 74.4771 122.555 74.881C121.88 75.5589 121.204 76.2361 120.528 76.913C119.746 77.6964 118.964 78.4808 118.184 79.2658C117.514 79.9394 116.843 80.6124 116.172 81.2849C115.771 81.6867 115.37 82.0888 114.97 82.4914C114.594 82.8695 114.217 83.2468 113.84 83.6236C113.635 83.8287 113.431 84.0345 113.227 84.2404C113.045 84.4216 113.045 84.4216 112.859 84.6065C112.701 84.7654 112.701 84.7654 112.539 84.9274C112.278 85.1516 112.278 85.1516 111.981 85.1516C111.791 84.9312 111.791 84.9312 111.576 84.6222C111.457 84.4531 111.457 84.4531 111.336 84.2806C111.251 84.1591 111.167 84.0375 111.08 83.9122C109.854 82.1804 108.527 80.5847 107.077 79.0385C106.931 78.8799 106.931 78.8799 106.782 78.7181C105.958 77.853 105.025 77.1303 104.077 76.4101C103.905 76.2794 103.733 76.148 103.563 76.0156C96.7365 70.7333 87.9331 69.0325 79.5206 70.0942C76.9876 70.4521 74.4895 71.1337 72.1541 72.1799C72.0407 72.2304 71.9274 72.281 71.8106 72.3331C68.6396 73.7602 65.8561 75.5723 63.3084 77.9517C62.9974 78.2402 62.6802 78.5145 62.3553 78.7869C59.0634 81.6802 56.9285 85.4892 54.9156 89.3264C47.7067 89.3264 40.4977 89.3264 33.0703 89.3264C33.1823 88.5395 33.329 87.8599 33.5765 87.1167C33.6301 86.9529 33.6301 86.9529 33.6848 86.7857C33.8008 86.4332 33.9183 86.0812 34.0363 85.7293C34.0764 85.609 34.1165 85.4886 34.1579 85.3646C34.7542 83.5814 35.3915 81.8317 36.1823 80.1245C36.3422 79.7784 36.497 79.4302 36.6514 79.0816C38.803 74.2965 41.9166 69.8745 45.4686 66.0353C45.7883 65.6873 46.1001 65.3351 46.4078 64.9765C47.1336 64.1393 47.916 63.378 48.7548 62.6555C49.0365 62.4115 49.3147 62.165 49.5919 61.9158C53.2606 58.6399 57.4641 55.947 61.9002 53.8405C62.0097 53.788 62.1193 53.7354 62.2322 53.6812C65.2113 52.2601 68.2897 51.1497 71.4996 50.3843C71.8988 50.2879 72.2964 50.1878 72.6942 50.0856C74.5419 49.6178 76.3719 49.3036 78.2656 49.0973C78.4054 49.0816 78.5453 49.0659 78.6894 49.0498C92.6085 47.5112 107.358 51.6676 118.074 60.8483Z" fill="white"/>
<path d="M31.583 99.3164C38.4487 99.3164 45.3143 99.3164 52.388 99.3164C52.4371 101.039 52.4861 102.761 52.5366 104.535C52.7711 106.949 53.2143 109.215 53.8741 111.543C53.9084 111.664 53.9426 111.785 53.9779 111.91C55.2386 116.255 57.6173 120.109 60.6723 123.405C60.9579 123.715 61.2296 124.032 61.4995 124.356C64.6544 127.969 69.2268 130.989 73.7875 132.417C74.0074 132.494 74.2272 132.572 74.4469 132.65C75.4021 132.965 76.3806 133.209 77.3541 133.46C77.5334 133.511 77.7127 133.561 77.8974 133.612C81.4567 134.496 85.4826 134.472 89.0941 133.908C89.2237 133.888 89.3534 133.868 89.487 133.847C93.0218 133.286 96.2959 132.106 99.5535 130.632C99.9424 130.478 99.9424 130.478 100.388 130.478C100.388 137.859 100.388 145.239 100.388 152.843C96.4828 153.912 96.4828 153.912 95.0755 154.213C94.9032 154.25 94.7308 154.287 94.5533 154.325C86.9677 155.89 78.5871 155.668 71.1126 153.589C70.8554 153.517 70.8554 153.517 70.593 153.444C67.1775 152.475 63.8266 151.236 60.6888 149.56C60.3966 149.405 60.1022 149.255 59.8074 149.105C57.4056 147.874 55.1441 146.408 52.9825 144.792C52.9025 144.732 52.8226 144.673 52.7402 144.612C49.867 142.464 47.175 140.038 44.809 137.337C44.7412 137.26 44.6733 137.183 44.6033 137.103C42.2967 134.467 40.3031 131.582 38.5675 128.54C38.4586 128.35 38.4586 128.35 38.3475 128.155C37.0507 125.869 35.9668 123.53 35.001 121.085C34.9356 120.92 34.8703 120.756 34.803 120.586C34.4455 119.672 34.1237 118.765 33.8771 117.814C33.8151 117.582 33.753 117.349 33.6908 117.116C33.6611 117.005 33.6313 116.893 33.6007 116.778C33.4823 116.344 33.3488 115.915 33.2177 115.484C32.4931 112.89 32.1022 110.276 31.8338 107.601C31.8208 107.479 31.8079 107.357 31.7945 107.232C31.5172 104.581 31.583 102.004 31.583 99.3164Z" fill="white"/>
<path d="M77.3535 99.3164C94.959 99.3164 112.565 99.3164 130.704 99.3164C130.704 116.931 130.704 134.546 130.704 152.694C123.985 152.694 117.267 152.694 110.344 152.694C110.344 141.87 110.344 131.045 110.344 119.892C99.4574 119.892 88.5704 119.892 77.3535 119.892C77.3535 113.102 77.3535 106.312 77.3535 99.3164Z" fill="#FDFDFD"/>
<path d="M84.7482 53.9525C84.8682 53.9524 84.9882 53.9523 85.1118 53.9521C97.1691 53.9681 108.828 59.0756 117.533 67.3277C117.708 67.4929 117.883 67.6573 118.059 67.8212C118.354 68.0975 118.646 68.377 118.937 68.6575C119.031 68.7444 119.124 68.8313 119.221 68.9209C119.306 69.0042 119.391 69.0876 119.479 69.1735C119.555 69.2466 119.632 69.3197 119.711 69.395C119.857 69.6452 119.857 69.6452 119.832 69.989C119.675 70.4996 119.442 70.7298 119.064 71.105C118.927 71.2422 118.79 71.3795 118.649 71.5209C118.499 71.6686 118.349 71.8162 118.198 71.9639C118.045 72.1164 117.892 72.2692 117.739 72.422C117.337 72.8231 116.933 73.2224 116.529 73.6213C116.117 74.029 115.706 74.4385 115.295 74.8477C114.489 75.65 113.681 76.4502 112.872 77.2494C112.386 77.0182 112.068 76.7727 111.693 76.3827C111.596 76.2833 111.5 76.184 111.401 76.0816C111.298 75.9749 111.195 75.8683 111.089 75.7584C110.967 75.6363 110.845 75.5143 110.719 75.3885C110.488 75.1563 110.26 74.9213 110.037 74.682C104.51 68.858 95.5133 64.9729 87.5501 64.7133C83.9327 64.6243 80.312 64.5365 76.7606 65.3213C76.6238 65.3508 76.487 65.3803 76.3461 65.4107C70.7856 66.6386 65.7123 69.1763 61.3054 72.7764C61.2251 72.8415 61.1449 72.9067 61.0622 72.9739C58.9705 74.6854 57.0044 76.5887 55.3611 78.7404C55.2465 78.8826 55.132 79.0248 55.0139 79.1713C53.7985 80.7024 52.668 82.3552 51.7945 84.108C47.9694 84.108 44.1442 84.108 40.2031 84.108C41.8696 79.7608 44.1355 75.8178 47.0391 72.1799C47.1469 72.0429 47.2548 71.9059 47.3659 71.7647C49.3684 69.2577 51.6401 66.8423 54.1722 64.874C54.3165 64.7549 54.4607 64.6357 54.6093 64.5129C58.58 61.2498 63.2922 58.5276 68.1413 56.8226C68.3235 56.7514 68.3235 56.7514 68.5094 56.6788C73.6397 54.6947 79.2779 53.9566 84.7482 53.9525Z" fill="#141413"/>
<path d="M36.9336 104.535C40.3664 104.535 43.7993 104.535 47.3361 104.535C47.5323 106.109 47.7284 107.684 47.9305 109.306C48.1082 110.174 48.2856 110.995 48.525 111.841C48.5838 112.058 48.6426 112.275 48.7014 112.492C49.052 113.759 49.4757 114.963 50.0111 116.164C50.0976 116.368 50.1839 116.572 50.27 116.777C52.0896 121.048 54.6851 124.749 57.8872 128.092C58.0022 128.213 58.0022 128.213 58.1194 128.335C59.1721 129.43 60.2559 130.438 61.4538 131.373C61.5963 131.488 61.7389 131.604 61.8857 131.723C67.6524 136.326 75.0734 139.292 82.4882 139.3C82.7303 139.301 82.7303 139.301 82.9772 139.302C83.3173 139.302 83.6574 139.303 83.9975 139.303C84.5117 139.303 85.0259 139.306 85.5401 139.308C87.1987 139.313 88.8002 139.299 90.4323 138.977C90.5934 138.947 90.7545 138.918 90.9205 138.887C91.3997 138.797 91.8773 138.702 92.3549 138.604C92.514 138.572 92.6731 138.541 92.837 138.508C93.6369 138.346 94.4 138.159 95.1877 137.933C95.1877 141.525 95.1877 145.117 95.1877 148.817C89.8996 149.879 84.7152 150.463 79.3501 149.758C78.9653 149.709 78.5801 149.669 78.1942 149.629C74.7529 149.256 71.3849 148.379 68.1412 147.177C67.9638 147.113 67.9638 147.113 67.7828 147.047C62.7998 145.21 58.0541 142.449 54.0235 138.977C53.8731 138.853 53.7227 138.73 53.5678 138.602C51.4013 136.808 49.3451 134.803 47.6333 132.566C47.4967 132.398 47.3595 132.231 47.2218 132.065C46.0649 130.658 45.0378 129.186 44.0668 127.645C44.0036 127.545 43.9405 127.445 43.8754 127.342C42.0546 124.418 40.5884 121.31 39.4532 118.059C39.3064 117.641 39.1535 117.227 39.0002 116.812C37.5955 112.936 36.9336 108.645 36.9336 104.535Z" fill="#141413"/>
<path d="M82.5566 104.684C96.7293 104.684 110.902 104.684 125.504 104.684C125.504 118.805 125.504 132.926 125.504 147.475C122.169 147.475 118.835 147.475 115.399 147.475C115.399 136.651 115.399 125.826 115.399 114.673C104.561 114.673 93.723 114.673 82.5566 114.673C82.5566 111.377 82.5566 108.08 82.5566 104.684Z" fill="#141413"/>
</g>
<defs>
<clipPath id="clip0_234_161">
<rect width="177" height="204" fill="white"/>
</clipPath>
</defs>
</svg>
